<svg width="24" xmlns="http://www.w3.org/2000/svg" height="39.226" fill="none"><g data-testid="svg" style="fill: rgb(0, 0, 0);"><path d="M7.5 4.799c-1.171 1.036-1.995 2.6-1.995 4.787v3.616a1.376 1.376 0 1 1-2.752 0V9.586c0-2.952 1.144-5.275 2.924-6.849C7.431 1.185 9.731.422 11.989.404c2.258-.019 4.567.707 6.331 2.257 1.79 1.574 2.927 3.919 2.927 6.925v3.616a1.376 1.376 0 1 1-2.752 0V9.586c0-2.262-.831-3.836-1.992-4.857-1.188-1.044-2.814-1.587-4.492-1.573-1.677.014-3.313.584-4.511 1.643Z" fill-rule="evenodd" clip-rule="evenodd" style="fill: rgb(250, 250, 250); fill-opacity: 1;" class="fills" data-testid="svg-path"/><ellipse cx="4.432" cy="19.212" rx="2.41" ry="2.409" style="fill: rgb(250, 250, 250); fill-opacity: 1;" class="fills" data-testid="svg-circle"/><ellipse cx="19.571" cy="19.212" rx="2.41" ry="2.409" style="fill: rgb(250, 250, 250); fill-opacity: 1;" class="fills" data-testid="svg-circle"/><path d="M1.032 23.549c-.57 0-1.032.462-1.032 1.032v2.624c0 6.627 5.373 12 12 12s12-5.373 12-12v-2.624c0-.57-.462-1.032-1.032-1.032H1.032Z" fill-rule="evenodd" clip-rule="evenodd" style="fill: rgb(250, 250, 250); fill-opacity: 1;" class="fills" data-testid="svg-path"/></g></svg>