<svg width="164" xmlns="http://www.w3.org/2000/svg" height="164" fill="none"><g style="fill: rgb(0, 0, 0);"><g clip-path="url(#a)" style="fill: rgb(0, 0, 0);"><defs><clipPath id="a" class="svg-def"><rect width="164" height="164" fill="#fff"/></clipPath></defs><path d="M110.668 0h.951c7.659.173 15.334 1.803 22.233 5.176 5.452 2.502 10.289 6.147 14.619 10.263-2.569 2.902-5.442 5.522-8.145 8.299-1.826 1.756-3.492 3.681-5.458 5.282-2.899-2.921-7.089-4.506-11.199-4.135-3.712.237-7.258 2.073-9.686 4.872-2.729 2.998-4.026 7.229-3.494 11.246.362 3.139 1.851 6.102 4.071 8.338-1.153 1.47-2.582 2.684-3.873 4.026-36.413 36.42-72.826 72.839-109.246 109.246-.836-.874-1.39-2.002-1.441-3.219v-27.592a4.917 4.917 0 0 1 1.608-3.334c19.782-19.78 39.562-39.565 59.348-59.345-1.279-4.151-2.198-8.427-2.448-12.767-.989-13.38 3.45-27.057 12.098-37.31C75.821 12.893 82.368 7.822 89.771 4.58 96.315 1.608 103.496.173 110.668 0Z" style="fill: rgb(232, 232, 232);" class="fills"/><path d="M148.471 15.439c9.465 9.321 15.109 22.329 15.529 35.6v3.879c-.516 12.466-5.516 24.747-14.126 33.809-8.158 9.042-19.67 14.933-31.73 16.492-7.777 1.086-15.769.263-23.235-2.123-3.867 3.876-7.742 7.742-11.609 11.618-.842.868-1.953 1.588-3.209 1.556-3.104.016-6.208-.006-9.311.007-.01 2.998.012 5.999-.007 8.997.054 2.656-2.444 5.068-5.115 4.773-2.486-.244-4.959-.599-7.444-.855-.43 3.437-.606 6.906-1.045 10.343-.339 2.082-2.072 3.786-4.157 4.106-3.412.404-6.845.621-10.26 1.012.186 2.62.737 5.208.82 7.835.112 1.441-.679 2.764-1.688 3.725-2.159 2.124-4.302 4.264-6.474 6.378-.679.698-1.563 1.14-2.492 1.409H3.834c-.89-.272-1.768-.676-2.393-1.387 36.42-36.407 72.833-72.826 109.246-109.246 1.291-1.342 2.72-2.556 3.873-4.026 2.767 2.626 6.493 4.343 10.355 4.215 6.026.064 11.714-4.225 13.498-9.949 1.426-4.244.635-9.157-2.03-12.754-.51-.606-1.003-1.227-1.515-1.833 1.966-1.601 3.632-3.526 5.458-5.282 2.703-2.777 5.576-5.397 8.145-8.299Z" style="fill: rgb(207, 207, 207);" class="fills"/></g></g></svg>