<svg width="32" xmlns="http://www.w3.org/2000/svg" height="31.15" viewBox="3834 -3916.15 32 31.15" fill="none"><path d="M3844.408-3915.148a16.096 16.096 0 0 1 7.837-.847c3.36.46 6.551 2.039 8.963 4.421a15.8 15.8 0 0 1 3.094 4.23c2.155 4.22 2.265 9.414.293 13.721-1.798 4.023-5.337 7.233-9.528 8.598-.731.174-1.358-.587-1.371-1.266-.007-1.716.008-3.433-.008-5.149-.024-.55-.038-1.148-.364-1.616 1.008-.219 2.022-.454 2.968-.876 1.083-.48 2.116-1.12 2.92-1.999 1.043-1.099 1.675-2.562 1.823-4.067.222-2.303-.351-4.793-1.993-6.493.403-.817.496-1.757.419-2.656-.065-.676-.265-1.347-.638-1.919-.049-.103-.155-.191-.277-.165a6.431 6.431 0 0 0-1.888.351.874.874 0 0 0-.313-.033c.071.031.141.063.211.096-.992.307-1.864.936-2.583 1.675-.166.008-.32-.095-.484-.118l-.056.096c.026-.171-.193-.164-.306-.198-1.815-.398-3.709-.425-5.541-.13-.538.082-1.055.245-1.574.403-.591-.687-1.369-1.205-2.186-1.589-.799-.353-1.685-.58-2.556-.529-.563.753-.773 1.721-.747 2.649.022.732.148 1.494.557 2.117-.992.971-1.646 2.26-1.946 3.609-.39 1.804-.274 3.772.599 5.424.801 1.538 2.211 2.687 3.778 3.389 1.009.453 2.08.767 3.172.938-.347.671-.358 1.442-.382 2.179-1.186.398-2.546.324-3.645-.289a3.264 3.264 0 0 1-1.221-1.181c-.539-.897-1.523-1.561-2.586-1.581-.233.026-.516.043-.647.27.082.302.349.485.591.656.554.385.941.955 1.26 1.539.24.394.355.851.614 1.235.788 1.181 2.177 1.888 3.581 1.964.693.071 1.384-.05 2.067-.149-.014.688.003 1.377-.007 2.066a1.42 1.42 0 0 1-.778 1.291c-.244.113-.528.097-.776.001a16.08 16.08 0 0 1-6.227-3.963c-1.751-1.803-3.087-4.016-3.817-6.424a16.004 16.004 0 0 1-.242-8.557c.816-3.324 2.75-6.357 5.403-8.516a15.845 15.845 0 0 1 4.537-2.608Z" style="fill: rgb(135, 135, 135); fill-opacity: 1;" class="fills" data-testid="svg-path"/></svg>