<svg width="164" xmlns="http://www.w3.org/2000/svg" height="164" fill="none"><g style="fill: rgb(0, 0, 0);"><path d="M88.047 0h.935c1.954.205 3.716 1.618 4.225 3.533.846 3.113 1.682 6.23 2.505 9.35.676 2.409-.861 5.125-3.261 5.807-2.485.798-5.375-.807-6.012-3.334-.859-3.197-1.746-6.387-2.553-9.597C83.245 3.081 85.359.314 88.047 0Z" style="fill: rgb(232, 232, 232);" class="fills"/><path d="M112.103 11.208c1.451-2.021 4.523-2.531 6.544-1.08 1.205.801 1.961 2.172 2.086 3.604 1.057 8.77 2.082 17.543 3.148 26.31a28.972 28.972 0 0 1-1.64 1.807c-5.897 5.845-11.733 11.749-17.624 17.604-3.101 2.873-6.047 5.904-9.02 8.911-4.209 4.142-8.364 8.338-12.541 12.512-4.023-.503-8.052-.958-12.076-1.455-4.773-.576-9.548-1.143-14.325-1.704-1.809-.166-3.462-1.415-4.068-3.135-.759-1.964-.009-4.341 1.708-5.548 7.124-5.333 14.254-10.654 21.372-15.99-3.505-8.2-7.035-16.387-10.529-24.587-.824-1.817-.362-4.107 1.124-5.443 1.352-1.3 3.482-1.646 5.192-.887a9416.71 9416.71 0 0 1 24.595 10.535c5.352-7.149 10.692-14.311 16.054-21.454ZM141.092 16.144c1.803-1.663 4.818-1.563 6.557.144-4.539 4.555-9.126 9.061-13.617 13.664-1.15-1.351-1.723-3.26-1.089-4.971.413-1.368 1.576-2.261 2.531-3.245 1.88-1.857 3.719-3.757 5.618-5.592Z" style="fill: rgb(232, 232, 232);" class="fills"/><path d="M46.917 40.862c.897-.179 1.817-.045 2.682.215 2.991.829 6.012 1.557 8.991 2.431 2.498.746 3.956 3.754 3.021 6.185-.772 2.226-3.313 3.62-5.603 3.043-3.187-.839-6.368-1.697-9.549-2.556-1.902-.541-3.357-2.364-3.434-4.347-.201-2.328 1.605-4.577 3.892-4.971Z" style="fill: rgb(232, 232, 232);" class="fills"/><path d="M147.649 16.288Zc1.81 1.73 1.967 4.808.253 6.669-2.329 2.38-4.696 4.724-7.057 7.069-1.829 1.819-5.019 1.768-6.813-.074 4.491-4.603 9.078-9.109 13.617-13.664ZM123.881 40.042c8.783 1.092 17.579 2.082 26.363 3.168 1.524.128 3.004.955 3.789 2.287 1.313 2.044.778 5.032-1.208 6.454-7.127 5.359-14.276 10.689-21.416 16.029 3.514 8.174 7.018 16.355 10.519 24.536.983 2.245.051 5.147-2.175 6.246-1.675.951-3.712.554-5.327-.314-7.816-3.354-15.641-6.695-23.447-10.067-4.924 6.649-9.908 13.257-14.857 19.891-.9 1.208-1.765 2.611-3.264 3.142-1.97.865-4.42.112-5.676-1.604-.714-.897-.952-2.047-1.041-3.162-.535-4.513-1.08-9.023-1.608-13.536-.503-4.078-.942-8.165-1.477-12.236 4.177-4.174 8.332-8.37 12.541-12.512 2.972-3.007 5.919-6.038 9.02-8.911 5.891-5.855 11.727-11.759 17.624-17.604a28.972 28.972 0 0 0 1.64-1.807Z" style="fill: rgb(207, 207, 207);" class="fills"/><path d="M148.149 68.476c1.448-.64 3.033-.23 4.471.205 2.701.731 5.417 1.419 8.108 2.194 2.402.75 3.844 3.578 3.056 5.965-.67 2.277-3.184 3.799-5.513 3.286-3.05-.765-6.073-1.637-9.12-2.418-1.768-.349-3.337-1.663-3.831-3.415-.759-2.303.58-4.971 2.829-5.817ZM114.195 102.433c2.45-1.028 5.522.432 6.294 2.966.897 3.165 1.714 6.358 2.572 9.536.506 1.848-.205 3.959-1.758 5.089-2.444 2.005-6.551.686-7.429-2.328-.884-3.143-1.697-6.304-2.553-9.456-.707-2.306.622-4.962 2.874-5.807Z" style="fill: rgb(207, 207, 207);" class="fills"/><path d="M70.98 79.421c4.023.497 8.053.952 12.076 1.455.535 4.071.974 8.158 1.477 12.236-23.108 23.142-46.248 46.25-69.366 69.379-.708.753-1.653 1.201-2.623 1.509h-1.865c-.855-.282-1.72-.625-2.383-1.256-2.085-1.976-3.994-4.122-6.06-6.114-1.16-1.016-2.137-2.335-2.236-3.927v-.737c.17-1.163.669-2.281 1.531-3.094 23.153-23.146 46.306-46.292 69.449-69.451Z" style="fill: rgb(160, 160, 160);" class="fills"/></g></svg>